HIERARCHY
ROOT Walk:Hips
{
	OFFSET -28.973524 93.152077 -217.209351
	CHANNELS 6 Xposition Yposition Zposition Xrotation Yrotation Zrotation
	JOINT Walk:LeftUpLeg
	{
		OFFSET 9.027712 -6.402786 -0.898193
		CHANNELS 6 Xposition Yposition Zposition Xrotation Yrotation Zrotation
		JOINT Walk:LeftUpLegRoll
		{
			OFFSET -1.417345 -22.669312 -0.922226
			CHANNELS 6 Xposition Yposition Zposition Xrotation Yrotation Zrotation
			JOINT Walk:LeftLeg
			{
				OFFSET -1.380812 -22.085003 -0.898468
				CHANNELS 6 Xposition Yposition Zposition Xrotation Yrotation Zrotation
				JOINT Walk:LeftLegRoll
				{
					OFFSET 0.157923 -18.231949 -12.474991
					CHANNELS 6 Xposition Yposition Zposition Xrotation Yrotation Zrotation
					JOINT Walk:LeftFoot
					{
						OFFSET 0.133026 -15.357566 -10.508224
						CHANNELS 6 Xposition Yposition Zposition Xrotation Yrotation Zrotation
						JOINT Walk:LeftToeBase
						{
							OFFSET 0.261684 -6.710592 12.725632
							CHANNELS 6 Xposition Yposition Zposition Xrotation Yrotation Zrotation
							JOINT Walk:LeftToe_End
							{
								OFFSET 0.122650 -0.208224 5.961960
								CHANNELS 6 Xposition Yposition Zposition Xrotation Yrotation Zrotation
								End Site
								{
									OFFSET 0.045616 5.963081 0.207321
								}
							}
						}
					}
				}
			}
		}
	}
	JOINT Walk:RightUpLeg
	{
		OFFSET -8.466032 -5.801758 -4.238861
		CHANNELS 6 Xposition Yposition Zposition Xrotation Yrotation Zrotation
		JOINT Walk:RightUpLegRoll
		{
			OFFSET -4.053551 -17.886162 13.431717
			CHANNELS 6 Xposition Yposition Zposition Xrotation Yrotation Zrotation
			JOINT Walk:RightLeg
			{
				OFFSET -3.949066 -17.425137 13.085510
				CHANNELS 6 Xposition Yposition Zposition Xrotation Yrotation Zrotation
				JOINT Walk:RightLegRoll
				{
					OFFSET -1.488945 -21.952185 1.984619
					CHANNELS 6 Xposition Yposition Zposition Xrotation Yrotation Zrotation
					JOINT Walk:RightFoot
					{
						OFFSET -1.254204 -18.491283 1.671722
						CHANNELS 6 Xposition Yposition Zposition Xrotation Yrotation Zrotation
						JOINT Walk:RightToeBase
						{
							OFFSET -3.509609 -1.847642 13.831528
							CHANNELS 6 Xposition Yposition Zposition Xrotation Yrotation Zrotation
							JOINT Walk:RightToe_End
							{
								OFFSET -1.296410 1.884591 5.510986
								CHANNELS 6 Xposition Yposition Zposition Xrotation Yrotation Zrotation
								End Site
								{
									OFFSET 0.661652 5.657255 -1.777939
								}
							}
						}
					}
				}
			}
		}
	}
	JOINT Walk:Spine
	{
		OFFSET 0.539244 7.552757 -1.464951
		CHANNELS 6 Xposition Yposition Zposition Xrotation Yrotation Zrotation
		JOINT Walk:Spine1
		{
			OFFSET 0.022709 12.272217 0.037750
			CHANNELS 6 Xposition Yposition Zposition Xrotation Yrotation Zrotation
			JOINT Walk:Spine2
			{
				OFFSET -0.212948 11.932228 0.093582
				CHANNELS 6 Xposition Yposition Zposition Xrotation Yrotation Zrotation
				JOINT Walk:Spine3
				{
					OFFSET -0.870867 10.374153 1.799683
					CHANNELS 6 Xposition Yposition Zposition Xrotation Yrotation Zrotation
					JOINT Walk:Neck
					{
						OFFSET -1.410727 11.321976 2.494537
						CHANNELS 6 Xposition Yposition Zposition Xrotation Yrotation Zrotation
						JOINT Walk:Head
						{
							OFFSET -1.217323 11.104645 -0.748444
							CHANNELS 6 Xposition Yposition Zposition Xrotation Yrotation Zrotation
							JOINT Walk:Head_End
							{
								OFFSET -0.265675 17.455688 2.947021
								CHANNELS 3 Xrotation Yrotation Zrotation
								End Site
								{
									OFFSET -0.265675 17.455688 2.947021
								}
							}
						}
					}
					JOINT Walk:LeftShoulder
					{
						OFFSET 5.761917 4.783783 4.249893
						CHANNELS 6 Xposition Yposition Zposition Xrotation Yrotation Zrotation
						JOINT Walk:LeftArm
						{
							OFFSET 9.400712 -3.113815 4.071365
							CHANNELS 6 Xposition Yposition Zposition Xrotation Yrotation Zrotation
							JOINT Walk:LeftArmRoll
							{
								OFFSET 8.494875 -12.664711 -0.588348
								CHANNELS 6 Xposition Yposition Zposition Xrotation Yrotation Zrotation
								JOINT Walk:LeftForeArm
								{
									OFFSET 6.704236 -9.995110 -0.464340
									CHANNELS 6 Xposition Yposition Zposition Xrotation Yrotation Zrotation
									JOINT Walk:LeftForeArmRoll
									{
										OFFSET 5.151064 -13.569992 7.477753
										CHANNELS 6 Xposition Yposition Zposition Xrotation Yrotation Zrotation
										JOINT Walk:LeftHand
										{
											OFFSET 3.271340 -8.618034 4.748978
											CHANNELS 6 Xposition Yposition Zposition Xrotation Yrotation Zrotation
											JOINT Walk:LeftHandThumb1
											{
												OFFSET -4.403042 -3.743973 2.117645
												CHANNELS 6 Xposition Yposition Zposition Xrotation Yrotation Zrotation
												JOINT Walk:LeftHandThumb2
												{
													OFFSET -0.535462 -2.610336 0.021042
													CHANNELS 6 Xposition Yposition Zposition Xrotation Yrotation Zrotation
													JOINT Walk:LeftHandThumb3
													{
														OFFSET 0.044296 -2.380882 -0.892761
														CHANNELS 6 Xposition Yposition Zposition Xrotation Yrotation Zrotation
														JOINT Walk:LeftHandThumb4
														{
															OFFSET -0.222999 -1.937660 -1.818588
															CHANNELS 6 Xposition Yposition Zposition Xrotation Yrotation Zrotation
															End Site
															{
																OFFSET 0.634130 -1.811066 1.851883
															}
														}
													}
												}
											}
											JOINT Walk:LeftHandIndex1
											{
												OFFSET -3.410133 -7.656891 4.434265
												CHANNELS 6 Xposition Yposition Zposition Xrotation Yrotation Zrotation
												JOINT Walk:LeftHandIndex2
												{
													OFFSET -0.570303 -4.179535 -0.244049
													CHANNELS 6 Xposition Yposition Zposition Xrotation Yrotation Zrotation
													JOINT Walk:LeftHandIndex3
													{
														OFFSET -0.648110 0.884232 -2.416916
														CHANNELS 6 Xposition Yposition Zposition Xrotation Yrotation Zrotation
														JOINT Walk:LeftHandIndex4
														{
															OFFSET -0.066114 1.749519 -0.877182
															CHANNELS 6 Xposition Yposition Zposition Xrotation Yrotation Zrotation
															End Site
															{
																OFFSET -0.615525 -0.851738 -1.652359
															}
														}
													}
												}
											}
											JOINT Walk:LeftHandMiddle1
											{
												OFFSET -1.257251 -7.829399 4.084976
												CHANNELS 6 Xposition Yposition Zposition Xrotation Yrotation Zrotation
												JOINT Walk:LeftHandMiddle2
												{
													OFFSET -0.477800 -4.746208 -0.946808
													CHANNELS 6 Xposition Yposition Zposition Xrotation Yrotation Zrotation
													JOINT Walk:LeftHandMiddle3
													{
														OFFSET -0.663528 1.180481 -2.410965
														CHANNELS 6 Xposition Yposition Zposition Xrotation Yrotation Zrotation
														JOINT Walk:LeftHandMiddle4
														{
															OFFSET -0.142349 1.857300 -0.743469
															CHANNELS 6 Xposition Yposition Zposition Xrotation Yrotation Zrotation
															End Site
															{
																OFFSET -0.555827 -0.752724 -1.773987
															}
														}
													}
												}
											}
											JOINT Walk:LeftHandRing1
											{
												OFFSET 0.696660 -8.228493 3.417465
												CHANNELS 6 Xposition Yposition Zposition Xrotation Yrotation Zrotation
												JOINT Walk:LeftHandRing2
												{
													OFFSET -0.787005 -4.388893 -0.842316
													CHANNELS 6 Xposition Yposition Zposition Xrotation Yrotation Zrotation
													JOINT Walk:LeftHandRing3
													{
														OFFSET -0.544003 0.866325 -2.065033
														CHANNELS 6 Xposition Yposition Zposition Xrotation Yrotation Zrotation
														JOINT Walk:LeftHandRing4
														{
															OFFSET -0.089924 1.682762 -0.927078
															CHANNELS 6 Xposition Yposition Zposition Xrotation Yrotation Zrotation
															End Site
															{
																OFFSET -0.604979 -0.905685 -1.585251
															}
														}
													}
												}
											}
											JOINT Walk:LeftHandPinky1
											{
												OFFSET 2.093762 -8.684532 2.321594
												CHANNELS 6 Xposition Yposition Zposition Xrotation Yrotation Zrotation
												JOINT Walk:LeftHandPinky2
												{
													OFFSET 0.032648 -2.950851 0.746964
													CHANNELS 6 Xposition Yposition Zposition Xrotation Yrotation Zrotation
													JOINT Walk:LeftHandPinky3
													{
														OFFSET -0.613792 -0.379837 -1.837830
														CHANNELS 6 Xposition Yposition Zposition Xrotation Yrotation Zrotation
														JOINT Walk:LeftHandPinky4
														{
															OFFSET -0.424400 0.656975 -1.471695
															CHANNELS 6 Xposition Yposition Zposition Xrotation Yrotation Zrotation
															End Site
															{
																OFFSET -0.297198 -1.527672 -0.596252
															}
														}
													}
												}
											}
										}
									}
								}
							}
						}
					}
					JOINT Walk:RightShoulder
					{
						OFFSET -7.618452 4.007828 0.204681
						CHANNELS 6 Xposition Yposition Zposition Xrotation Yrotation Zrotation
						JOINT Walk:RightArm
						{
							OFFSET -9.065712 -5.693451 -0.208176
							CHANNELS 6 Xposition Yposition Zposition Xrotation Yrotation Zrotation
							JOINT Walk:RightArmRoll
							{
								OFFSET -5.918976 -12.878639 -5.657928
								CHANNELS 6 Xposition Yposition Zposition Xrotation Yrotation Zrotation
								JOINT Walk:RightForeArm
								{
									OFFSET -4.671322 -10.163971 -4.465302
									CHANNELS 6 Xposition Yposition Zposition Xrotation Yrotation Zrotation
									JOINT Walk:RightForeArmRoll
									{
										OFFSET -7.340542 -14.522484 -1.343689
										CHANNELS 6 Xposition Yposition Zposition Xrotation Yrotation Zrotation
										JOINT Walk:RightHand
										{
											OFFSET -4.661835 -9.222946 -0.853348
											CHANNELS 6 Xposition Yposition Zposition Xrotation Yrotation Zrotation
											JOINT Walk:RightHandThumb1
											{
												OFFSET 2.034218 -5.173111 2.643753
												CHANNELS 6 Xposition Yposition Zposition Xrotation Yrotation Zrotation
												JOINT Walk:RightHandThumb2
												{
													OFFSET 0.158203 -2.593575 -0.591049
													CHANNELS 6 Xposition Yposition Zposition Xrotation Yrotation Zrotation
													JOINT Walk:RightHandThumb3
													{
														OFFSET -0.055435 -2.219383 -1.240494
														CHANNELS 6 Xposition Yposition Zposition Xrotation Yrotation Zrotation
														JOINT Walk:RightHandThumb4
														{
															OFFSET -0.235649 -2.390198 -1.158875
															CHANNELS 6 Xposition Yposition Zposition Xrotation Yrotation Zrotation
															End Site
															{
																OFFSET -1.996170 -0.608231 1.660400
															}
														}
													}
												}
											}
											JOINT Walk:RightHandIndex1
											{
												OFFSET -0.486626 -9.085670 2.670868
												CHANNELS 6 Xposition Yposition Zposition Xrotation Yrotation Zrotation
												JOINT Walk:RightHandIndex2
												{
													OFFSET -0.856773 -4.130394 -0.243210
													CHANNELS 6 Xposition Yposition Zposition Xrotation Yrotation Zrotation
													JOINT Walk:RightHandIndex3
													{
														OFFSET 0.327835 -2.488930 -0.860886
														CHANNELS 6 Xposition Yposition Zposition Xrotation Yrotation Zrotation
														JOINT Walk:RightHandIndex4
														{
															OFFSET 0.230949 -1.840721 -0.626953
															CHANNELS 6 Xposition Yposition Zposition Xrotation Yrotation Zrotation
															End Site
															{
																OFFSET -1.493576 -0.572197 1.129791
															}
														}
													}
												}
											}
											JOINT Walk:RightHandMiddle1
											{
												OFFSET -2.073593 -8.585091 1.250427
												CHANNELS 6 Xposition Yposition Zposition Xrotation Yrotation Zrotation
												JOINT Walk:RightHandMiddle2
												{
													OFFSET 0.537193 -4.408432 -1.982025
													CHANNELS 6 Xposition Yposition Zposition Xrotation Yrotation Zrotation
													JOINT Walk:RightHandMiddle3
													{
														OFFSET 1.040764 -2.014305 -1.583008
														CHANNELS 6 Xposition Yposition Zposition Xrotation Yrotation Zrotation
														JOINT Walk:RightHandMiddle4
														{
															OFFSET 1.498230 -0.143417 -1.325638
															CHANNELS 6 Xposition Yposition Zposition Xrotation Yrotation Zrotation
															End Site
															{
																OFFSET -0.443108 -1.934227 -0.291534
															}
														}
													}
												}
											}
											JOINT Walk:RightHandRing1
											{
												OFFSET -3.341606 -8.279297 -0.399185
												CHANNELS 6 Xposition Yposition Zposition Xrotation Yrotation Zrotation
												JOINT Walk:RightHandRing2
												{
													OFFSET -1.350693 -4.322693 -0.284988
													CHANNELS 6 Xposition Yposition Zposition Xrotation Yrotation Zrotation
													JOINT Walk:RightHandRing3
													{
														OFFSET -0.010406 -2.193939 -0.705246
														CHANNELS 6 Xposition Yposition Zposition Xrotation Yrotation Zrotation
														JOINT Walk:RightHandRing4
														{
															OFFSET 0.379189 -1.677673 -0.860764
															CHANNELS 6 Xposition Yposition Zposition Xrotation Yrotation Zrotation
															End Site
															{
																OFFSET -1.461113 -0.816406 0.947571
															}
														}
													}
												}
											}
											JOINT Walk:RightHandPinky1
											{
												OFFSET -3.917740 -8.081856 -2.128311
												CHANNELS 6 Xposition Yposition Zposition Xrotation Yrotation Zrotation
												JOINT Walk:RightHandPinky2
												{
													OFFSET -0.936920 -2.855255 -0.508698
													CHANNELS 6 Xposition Yposition Zposition Xrotation Yrotation Zrotation
													JOINT Walk:RightHandPinky3
													{
														OFFSET -0.224396 -1.855957 -0.642822
														CHANNELS 6 Xposition Yposition Zposition Xrotation Yrotation Zrotation
														JOINT Walk:RightHandPinky4
														{
															OFFSET 0.684479 -1.104790 -1.046555
															CHANNELS 6 Xposition Yposition Zposition Xrotation Yrotation Zrotation
															End Site
															{
																OFFSET -1.152336 -1.125809 0.434784
															}
														}
													}
												}
											}
										}
									}
								}
							}
						}
					}
				}
			}
		}
	}
}
MOTION
Frames: 2
Frame Time: 0.041667
-28.973528 93.152100 -217.209396 -0.000000 0.000002 -0.000000 9.027704 -6.402796 -0.898222 -0.000001 0.000001 0.000000 -1.417344 -22.669319 -0.922257 -0.000000 0.000001 -0.000000 -1.380809 -22.085003 -0.898472 0.000005 0.000001 0.000001 0.157925 -18.231945 -12.475006 -0.000003 -0.000000 -0.000000 0.133033 -15.357565 -10.508224 0.000003 -0.000000 -0.000000 0.261686 -6.710593 12.725662 -0.000000 0.000000 -0.000000 0.122651 -0.208223 5.961929 0.000000 -0.000000 0.000000 -8.466040 -5.801758 -4.238867 0.000004 -0.000000 -0.000001 -4.053545 -17.886131 13.431721 0.000000 -0.000000 -0.000000 -3.949054 -17.425135 13.085477 -0.000006 0.000001 -0.000001 -1.488942 -21.952196 1.984557 -0.000000 0.000000 0.000000 -1.254219 -18.491278 1.671707 0.000003 -0.000000 0.000001 -3.509623 -1.847643 13.831543 -0.000001 0.000001 -0.000000 -1.296396 1.884585 5.510986 -0.000001 0.000000 0.000001 0.539235 7.552743 -1.464965 0.000000 0.000001 -0.000000 0.022704 12.272188 0.037721 0.000000 -0.000001 0.000000 -0.212937 11.932218 0.093581 -0.000001 -0.000001 -0.000000 -0.870870 10.374148 1.799695 -0.000001 -0.000002 -0.000001 -1.410721 11.322021 2.494518 0.000004 0.000003 -0.000000 -1.217319 11.104610 -0.748421 -0.000001 -0.000001 0.000001 -0.000001 0.000000 -0.000000 5.761927 4.783805 4.249877 -0.000002 -0.000002 -0.000001 9.400705 -3.113819 4.071374 0.000003 -0.000005 0.000004 8.494877 -12.664720 -0.588333 -0.000000 0.000000 -0.000001 6.704219 -9.995090 -0.464347 -0.000005 0.000006 -0.000002 5.151056 -13.569999 7.477766 0.000000 0.000000 -0.000001 3.271362 -8.618042 4.749008 0.000007 -0.000003 -0.000002 -4.403056 -3.743984 2.117599 0.000001 0.000001 -0.000000 -0.535466 -2.610342 0.021022 0.000001 0.000002 0.000001 0.044298 -2.380888 -0.892762 0.000003 0.000000 -0.000001 -0.223013 -1.937652 -1.818586 0.000002 0.000001 0.000001 -3.410145 -7.656926 4.434236 0.000001 0.000002 0.000001 -0.570304 -4.179544 -0.244047 -0.000010 -0.000000 0.000000 -0.648113 0.884204 -2.416911 0.000001 0.000003 -0.000001 -0.066116 1.749486 -0.877164 -0.000001 0.000002 -0.000000 -1.257251 -7.829428 4.084945 0.000000 0.000000 -0.000000 -0.477790 -4.746205 -0.946775 -0.000006 0.000001 0.000001 -0.663501 1.180476 -2.410935 0.000001 -0.000001 0.000001 -0.142333 1.857291 -0.743438 -0.000000 -0.000002 -0.000001 0.696667 -8.228521 3.417472 -0.000004 0.000001 0.000000 -0.787011 -4.388896 -0.842344 -0.000001 -0.000001 -0.000001 -0.543998 0.866321 -2.065045 -0.000001 -0.000002 -0.000001 -0.089922 1.682765 -0.927077 0.000003 -0.000000 -0.000000 2.093768 -8.684558 2.321592 -0.000001 -0.000001 0.000000 0.032655 -2.950856 0.746992 -0.000001 0.000000 -0.000000 -0.613788 -0.379836 -1.837819 0.000000 -0.000002 0.000000 -0.424404 0.656985 -1.471662 -0.000001 0.000000 -0.000001 -7.618449 4.007829 0.204667 0.000001 -0.000001 -0.000002 -9.065692 -5.693474 -0.208196 0.000004 -0.000001 0.000006 -5.918976 -12.878641 -5.657884 -0.000001 0.000002 0.000003 -4.671312 -10.163962 -4.465358 -0.000006 -0.000007 -0.000000 -7.340551 -14.522485 -1.343715 -0.000000 -0.000002 0.000002 -4.661848 -9.222962 -0.853342 -0.000001 0.000001 0.000002 2.034235 -5.173089 2.643738 -0.000003 -0.000001 0.000001 0.158193 -2.593586 -0.591039 -0.000003 0.000008 0.000001 -0.055454 -2.219383 -1.240509 -0.000000 0.000006 0.000002 -0.235630 -2.390206 -1.158871 -0.000000 -0.000001 -0.000000 -0.486616 -9.085653 2.670858 -0.000000 -0.000000 -0.000001 -0.856746 -4.130383 -0.243208 -0.000002 -0.000001 -0.000001 0.327870 -2.488935 -0.860888 -0.000000 -0.000003 0.000000 0.230956 -1.840720 -0.626969 -0.000000 -0.000001 -0.000001 -2.073590 -8.585083 1.250417 -0.000005 -0.000004 -0.000001 0.537179 -4.408429 -1.982008 -0.000001 0.000003 0.000003 1.040759 -2.014305 -1.583012 0.000000 0.000004 0.000003 1.498189 -0.143431 -1.325631 0.000001 0.000007 0.000003 -3.341594 -8.279285 -0.399208 0.000001 -0.000003 0.000001 -1.350682 -4.322693 -0.284991 0.000001 0.000002 -0.000003 -0.010424 -2.193926 -0.705258 -0.000001 0.000005 0.000003 0.379182 -1.677678 -0.860729 0.000001 0.000001 0.000001 -3.917710 -8.081845 -2.128292 0.000003 -0.000002 0.000002 -0.936960 -2.855247 -0.508713 0.000003 0.000006 -0.000000 -0.224406 -1.855944 -0.642835 0.000002 0.000002 -0.000003 0.684467 -1.104780 -1.046553 -0.000000 0.000003 0.000001 
-29.353102 92.553963 -214.500610 0.052215 -0.391407 0.804826 9.027712 -6.402771 -0.898178 2.872474 -0.459718 -0.730461 -1.417343 -22.669321 -0.922196 -0.001705 -0.027261 -0.001110 -1.380816 -22.084997 -0.898484 -2.159085 0.517071 0.016046 0.157921 -18.231936 -12.474993 0.000114 -0.013679 -0.009360 0.133034 -15.357587 -10.508224 -0.809632 0.020405 -0.063474 0.261686 -6.710592 12.725644 0.037057 0.020091 -0.574623 0.122654 -0.208222 5.961945 0.000000 0.000000 -0.000000 -8.466035 -5.801758 -4.238852 -1.556598 0.167294 -0.188556 -4.053551 -17.886177 13.431738 -0.001531 -0.006765 0.005081 -3.949057 -17.425158 13.085502 -1.236794 -1.040444 -0.179376 -1.488949 -21.952181 1.984626 0.004380 0.064548 -0.005838 -1.254214 -18.491282 1.671753 -2.038363 0.209601 0.126803 -3.509621 -1.847643 13.831526 0.000001 0.000001 -0.000000 -1.296404 1.884574 5.510986 -0.000003 -0.000001 -0.000000 0.539237 7.552758 -1.464934 -0.205951 -0.075305 -0.099110 0.022719 12.272215 0.037727 0.096014 -0.082293 0.060353 -0.212947 11.932216 0.093570 0.096741 -0.083195 0.062321 -0.870870 10.374138 1.799672 0.097545 -0.084073 0.064458 -1.410738 11.321997 2.494586 0.563109 0.625926 -0.365178 -1.217321 11.104609 -0.748461 -0.237034 0.421081 -0.233969 -0.000002 -0.000000 -0.000000 5.761924 4.783798 4.249931 -0.138960 -0.066152 0.434999 9.400715 -3.113824 4.071378 -0.703437 -0.414084 0.334701 8.494864 -12.664709 -0.588372 0.087312 -0.130184 -0.005949 6.704228 -9.995105 -0.464360 -1.974261 0.371106 -1.469547 5.151042 -13.569969 7.477743 0.007561 -0.019915 0.010974 3.271353 -8.618022 4.748967 1.014766 0.530356 0.744005 -4.403049 -3.743960 2.117630 -0.002054 0.000351 -0.008796 -0.535456 -2.610355 0.021052 -0.000001 0.000002 0.000000 0.044303 -2.380894 -0.892731 -0.000006 -0.000001 -0.000001 -0.223000 -1.937660 -1.818583 0.000004 0.000000 0.000000 -3.410142 -7.656891 4.434279 0.000002 0.000000 -0.000000 -0.570293 -4.179544 -0.244059 -0.000007 -0.000001 -0.000000 -0.648128 0.884201 -2.416950 -0.000002 0.000003 -0.000001 -0.066114 1.749498 -0.877167 0.000003 0.000003 -0.000002 -1.257245 -7.829394 4.084968 1.073218 -0.132284 -0.246771 -0.477791 -4.746219 -0.946805 -0.000008 -0.000003 0.000002 -0.663498 1.180478 -2.410950 -0.000001 -0.000002 -0.000000 -0.142351 1.857309 -0.743464 -0.000002 -0.000001 -0.000001 0.696672 -8.228491 3.417504 -0.000002 -0.000003 0.000000 -0.787032 -4.388911 -0.842355 0.000001 0.000001 -0.000001 -0.544002 0.866330 -2.065060 -0.000003 -0.000001 -0.000002 -0.089909 1.682791 -0.927064 -0.000000 -0.000001 -0.000001 2.093769 -8.684517 2.321609 0.000002 -0.000001 0.000001 0.032647 -2.950857 0.746994 0.000001 -0.000001 0.000000 -0.613790 -0.379830 -1.837789 0.000002 0.000003 0.000002 -0.424408 0.656977 -1.471710 0.000001 0.000001 0.000001 -7.618464 4.007841 0.204686 0.272725 -0.057762 -0.677969 -9.065686 -5.693453 -0.208172 0.330095 -0.068024 0.073047 -5.918972 -12.878628 -5.657931 -0.026948 -0.058611 -0.025766 -4.671321 -10.163967 -4.465296 0.784733 0.337566 0.119869 -7.340528 -14.522487 -1.343674 -0.000968 -0.001918 -0.000175 -4.661836 -9.222919 -0.853363 0.243717 -0.097262 0.006691 2.034242 -5.173112 2.643745 -0.000002 -0.000004 -0.000001 0.158202 -2.593574 -0.591041 -0.000003 0.000007 0.000001 -0.055445 -2.219389 -1.240488 -0.000002 -0.000002 0.000001 -0.235642 -2.390232 -1.158843 -0.000000 -0.000001 0.000003 -0.486621 -9.085680 2.670835 0.000000 -0.000000 -0.000003 -0.856738 -4.130381 -0.243184 -0.000003 -0.000004 -0.000002 0.327864 -2.488907 -0.860873 0.000005 -0.000002 0.000001 0.230971 -1.840735 -0.626949 -0.000003 -0.000003 -0.000001 -2.073596 -8.585093 1.250466 0.736831 -0.214398 0.762915 0.537192 -4.408434 -1.982005 0.000001 0.000000 0.000001 1.040744 -2.014324 -1.583030 -0.000003 0.000003 0.000001 1.498235 -0.143432 -1.325648 -0.000000 0.000002 0.000001 -3.341594 -8.279301 -0.399196 -0.000001 -0.000005 -0.000001 -1.350690 -4.322701 -0.284981 -0.000001 -0.000000 -0.000001 -0.010415 -2.193942 -0.705256 -0.000003 0.000005 0.000004 0.379175 -1.677651 -0.860748 0.000001 0.000001 0.000002 -3.917713 -8.081855 -2.128285 -0.000000 -0.000003 0.000001 -0.936938 -2.855232 -0.508699 0.000006 0.000003 -0.000000 -0.224410 -1.855973 -0.642833 -0.000002 0.000003 -0.000000 0.684479 -1.104776 -1.046584 0.000003 0.000002 -0.000000 
